# xmcd
#
# Track frame offsets: 
#        150
#        12763
#        24363
#        37350
#        51023
#        62365
#        73833
#        87260
#        98943
#        111005
#        123143
#        136793
#        149088
#        161988
#        174713
#        187263
#        199853
#        212425
#        224063
#        237300
#        249298
#        262465
#        278948
#        289735
#
# Disc length: 4023 seconds
#
# Revision: 3
# Processed by: cddbd v1.5.2PL0 Copyright (c) Steve Scherf et al.
# Submitted via: ExactAudioCopy v1.1
#
DISCID=7c0fb518
DTITLE=Brownie McGee - The Complete Brownie McGhee (Roots N' Blues) - 
DTITLE=Disk 2
DYEAR=1994
DGENRE=Blues
TTITLE0=Key To My Door (mono)
TTITLE1=Million Lonesome Women (mono)
TTITLE2=Ain't No Tellin' (mono)
TTITLE3=Try Me One More Time (mono)
TTITLE4=I Want To See Jesus (mono)
TTITLE5=Done What My Lord Said (mono)
TTITLE6=I Want King Jesus (mono)
TTITLE7=What Will I Do (Without The Lord) (mono)
TTITLE8=Key To The Highway 70 (take 1) (mono)
TTITLE9=Key To The Highway 70 (take 2) (mono)
TTITLE10=I Don't Believe In Love (mono)
TTITLE11=So Much Trouble (mono)
TTITLE12=Good-Bye Now (mono)
TTITLE13=Jealous Of My Woman (mono)
TTITLE14=Unfair Blues (mono)
TTITLE15=Barbecue Any Old Time (mono)
TTITLE16=Workingman's Blues (mono)
TTITLE17=Sinful Disposition Woman (mono)
TTITLE18=Back Home Blues (mono)
TTITLE19=Deep Sea Diver (mono)
TTITLE20=It Must Be Love (mono)
TTITLE21=Studio Chatter (mono)
TTITLE22=Swing, Soldier, Swing (take 1)
TTITLE23=Swing, Soldier, Swing (take 2)
EXTD=
EXTT0=
EXTT1=
EXTT2=
EXTT3=
EXTT4=
EXTT5=
EXTT6=
EXTT7=
EXTT8=
EXTT9=
EXTT10=
EXTT11=
EXTT12=
EXTT13=
EXTT14=
EXTT15=
EXTT16=
EXTT17=
EXTT18=
EXTT19=
EXTT20=
EXTT21=
EXTT22=
EXTT23=
PLAYORDER=
